<?xml version="1.0" encoding="UTF-8" standalone="no"?>
<!DOCTYPE svg PUBLIC "-//W3C//DTD SVG 1.1//EN" "http://www.w3.org/Graphics/SVG/1.1/DTD/svg11.dtd">
<svg width="100%" height="100%" viewBox="0 0 110 159" version="1.1" xmlns="http://www.w3.org/2000/svg" xmlns:xlink="http://www.w3.org/1999/xlink" xml:space="preserve" xmlns:serif="http://www.serif.com/" style="fill-rule:evenodd;clip-rule:evenodd;stroke-linejoin:round;stroke-miterlimit:2;">
    <g transform="matrix(1,0,0,1,-614.631,-252.589)">
        <g transform="matrix(0.961585,0,0,0.996197,0,0)">
            <g transform="matrix(4.33312,0,0,4.18257,704.052,346.385)">
                <path d="M0,-6.276C-5.253,-1.557 -9.53,8.213 -8.875,13.966C-8.111,13.655 -7.385,13.427 -6.797,13.254C-6.702,12.757 -6.609,12.26 -6.517,11.763C-5.39,5.701 -4.224,-0.565 0.466,-5.75C0.403,-5.855 0.33,-5.925 0.244,-6.007C0.168,-6.08 0.082,-6.163 0,-6.276M-9.321,14.761L-9.376,14.405C-10.312,8.352 -5.806,-2.013 -0.104,-6.924L0.195,-7.182L0.337,-6.813C0.412,-6.616 0.508,-6.525 0.629,-6.408C0.766,-6.277 0.936,-6.113 1.056,-5.799L1.116,-5.639L1,-5.512C-3.687,-0.418 -4.848,5.826 -5.971,11.864C-6.074,12.418 -6.177,12.972 -6.283,13.526L-6.314,13.693L-6.479,13.74C-7.16,13.936 -8.062,14.214 -8.991,14.618L-9.321,14.761ZM-2.573,-18.417C-3.08,-18.076 -3.424,-17.54 -3.789,-16.971C-3.903,-16.793 -4.02,-16.613 -4.142,-16.436C-4.024,-16.489 -3.909,-16.542 -3.795,-16.593C-2.614,-17.13 -1.595,-17.594 -0.289,-17.93C0.67,-18.176 1.633,-18.301 2.564,-18.423C4.581,-18.686 6.498,-18.935 8.117,-20.374C5.855,-20.143 3.047,-19.675 0.271,-19.063C-0.062,-18.989 -0.423,-18.935 -0.78,-18.882C-1.473,-18.78 -2.189,-18.675 -2.573,-18.417M6.687,-17.73C6.257,-15.562 5.851,-13.386 5.444,-11.21C5.07,-9.202 4.695,-7.194 4.301,-5.192C4.711,-5.422 5.142,-5.624 5.562,-5.72C5.444,-6.307 5.616,-6.798 5.782,-7.275C5.851,-7.469 5.921,-7.672 5.977,-7.892C7.238,-12.894 8.325,-16.742 9.371,-19.904C9.057,-19.658 8.779,-19.399 8.492,-19.13C7.98,-18.651 7.451,-18.157 6.687,-17.73M-5.101,-14.567C-4.355,-13.834 -3.964,-13.048 -3.517,-12.154L-3.152,-11.435L-3.324,-11.293C-5.976,-9.107 -12.25,-2.884 -13.239,7.651C-13.264,7.919 -12.865,8.452 -12.575,8.841C-12.422,9.046 -12.276,9.241 -12.172,9.412C-11.949,9.775 -11.721,10.152 -11.49,10.532C-11.108,11.161 -10.722,11.8 -10.347,12.398C-10.21,4.83 -3.446,-5.477 -0.955,-7.567C-0.922,-7.643 -0.896,-7.721 -0.87,-7.799C-0.774,-8.086 -0.655,-8.443 -0.243,-8.703L-0.062,-8.817L0.094,-8.672C0.749,-8.065 1.239,-7.375 1.714,-6.708C2.063,-6.215 2.397,-5.747 2.781,-5.33C3.174,-5.662 3.199,-6.093 3.229,-6.623C3.237,-6.753 3.244,-6.884 3.258,-7.012C4.42,-11.277 5.056,-14.891 5.157,-17.802C3.884,-17.373 2.551,-17.059 1.258,-16.754C-1.066,-16.206 -3.27,-15.687 -5.101,-14.567M-14.347,7.527C-13.705,8.445 -13.01,9.639 -12.274,10.9C-11.398,12.401 -10.495,13.95 -9.604,15.172C-8.445,14.456 -7.267,14.053 -5.88,13.626C-5.873,13.585 -5.865,13.538 -5.855,13.483C-5.007,8.389 -2.963,-0.799 1.192,-5.094L1.376,-5.285L1.574,-5.11C2.094,-4.655 2.653,-4.181 3.234,-3.786C3.754,-3.874 4.347,-4.144 4.92,-4.404C5.402,-4.624 5.899,-4.85 6.378,-4.983C7.394,-9.662 8.613,-14.358 9.794,-18.901L10.371,-21.13L10.161,-20.515C9.039,-17.221 7.88,-13.167 6.516,-7.756C6.456,-7.52 6.38,-7.301 6.307,-7.092C6.121,-6.559 5.974,-6.138 6.174,-5.59L6.299,-5.249L5.937,-5.218C5.345,-5.169 4.62,-4.753 4.056,-4.397L3.509,-4.052L3.635,-4.686C4.073,-6.89 4.486,-9.101 4.898,-11.312C5.313,-13.532 5.728,-15.753 6.168,-17.965L6.193,-18.094L6.31,-18.156C7.073,-18.564 7.578,-19.036 8.112,-19.536C8.587,-19.979 9.078,-20.438 9.756,-20.842L10.396,-21.224L10.474,-21.525C9.451,-21.381 8.43,-21.265 7.437,-21.153C3.86,-20.749 0.163,-20.331 -3.815,-18.548C-4.065,-17.884 -4.622,-17.333 -5.16,-16.798C-5.745,-16.218 -6.304,-15.665 -6.443,-15.02L-5.364,-15.886C-4.912,-16.25 -4.594,-16.746 -4.257,-17.271C-3.877,-17.862 -3.485,-18.473 -2.884,-18.878L-2.883,-18.878C-2.395,-19.206 -1.65,-19.316 -0.861,-19.432C-0.518,-19.483 -0.17,-19.534 0.151,-19.605C3.273,-20.294 6.438,-20.801 8.837,-20.999L9.533,-21.056L9.065,-20.536C8.047,-19.404 6.922,-18.805 5.728,-18.445L5.723,-18.192C5.668,-15.168 5.021,-11.373 3.802,-6.91C3.798,-6.835 3.791,-6.713 3.784,-6.591C3.747,-5.95 3.705,-5.225 2.891,-4.727L2.703,-4.612L2.549,-4.769C2.063,-5.259 1.655,-5.832 1.261,-6.386C0.848,-6.968 0.421,-7.568 -0.11,-8.098C-0.229,-7.966 -0.281,-7.809 -0.344,-7.623C-0.383,-7.505 -0.424,-7.386 -0.479,-7.273L-0.554,-7.178C-3.005,-5.186 -9.972,5.418 -9.79,12.912L-9.786,13.051L-9.896,13.137C-10.153,13.339 -10.393,13.266 -10.533,13.129C-11.023,12.373 -11.498,11.591 -11.966,10.819L-12.646,9.702C-12.742,9.544 -12.878,9.363 -13.02,9.174C-13.421,8.637 -13.837,8.081 -13.792,7.599C-12.805,-2.924 -6.643,-9.23 -3.849,-11.58L-4.013,-11.906C-4.505,-12.889 -4.893,-13.665 -5.735,-14.398L-6.012,-14.636L-5.707,-14.839C-3.736,-16.148 -1.262,-16.731 1.13,-17.295C2.187,-17.544 3.271,-17.799 4.319,-18.118C3.769,-18.02 3.206,-17.946 2.636,-17.872C1.721,-17.753 0.775,-17.63 -0.15,-17.392C-1.409,-17.068 -2.408,-16.614 -3.564,-16.088C-4.036,-15.874 -4.532,-15.648 -5.082,-15.415L-6.472,-14.824C-6.476,-14.772 -6.478,-14.719 -6.476,-14.667C-5.635,-14.141 -4.738,-12.731 -4.348,-11.843L-4.268,-11.66L-4.414,-11.526C-7.844,-8.395 -9.883,-4.734 -11.521,-1.794C-12.435,-0.155 -12.882,1.813 -13.314,3.717C-13.605,4.996 -13.906,6.318 -14.347,7.527M-9.739,15.919L-9.896,15.712C-10.855,14.435 -11.82,12.78 -12.754,11.18C-13.516,9.874 -14.234,8.641 -14.885,7.728L-14.97,7.608L-14.918,7.47C-14.463,6.26 -14.154,4.904 -13.856,3.593C-13.415,1.652 -12.958,-0.356 -12.006,-2.064C-10.372,-4.998 -8.344,-8.638 -4.938,-11.798C-5.346,-12.644 -6.168,-13.896 -6.866,-14.25L-6.997,-14.317L-7.016,-14.463C-7.159,-15.599 -6.342,-16.409 -5.552,-17.193C-5.004,-17.735 -4.487,-18.248 -4.304,-18.835L-4.267,-18.954L-4.153,-19.005C-0.054,-20.865 3.723,-21.292 7.374,-21.705C8.496,-21.832 9.656,-21.963 10.806,-22.134L11.22,-22.195L10.331,-18.761C9.139,-14.169 7.905,-9.421 6.885,-4.697L6.848,-4.525L6.676,-4.485C6.199,-4.376 5.666,-4.133 5.15,-3.899C4.501,-3.604 3.83,-3.298 3.203,-3.22L3.102,-3.208L3.016,-3.264C2.451,-3.638 1.913,-4.081 1.41,-4.517C-1.469,-1.377 -3.911,5.189 -5.309,13.575C-5.34,13.767 -5.36,13.884 -5.368,13.912L-5.407,14.062L-5.556,14.107C-7.06,14.568 -8.307,14.983 -9.521,15.777L-9.739,15.919Z" style="fill:rgb(56,55,57);fill-rule:nonzero;"/>
            </g>
        </g>
    </g>
</svg>
