<?xml version="1.0" encoding="UTF-8" standalone="no"?>
<!DOCTYPE svg PUBLIC "-//W3C//DTD SVG 1.1//EN" "http://www.w3.org/Graphics/SVG/1.1/DTD/svg11.dtd">
<svg width="100%" height="100%" viewBox="0 0 8502 3891" version="1.1" xmlns="http://www.w3.org/2000/svg" xmlns:xlink="http://www.w3.org/1999/xlink" xml:space="preserve" xmlns:serif="http://www.serif.com/" style="fill-rule:evenodd;clip-rule:evenodd;stroke-linejoin:round;stroke-miterlimit:2;">
    <g transform="matrix(1,0,0,1,-1705.17,-1698.16)">
        <g transform="matrix(1.19097,0,0,1.25464,37.2304,-5751.53)">
            <g id="tag">
                <g transform="matrix(106.064,0,0,100.682,1633.9,8744.81)">
                    <path d="M0,2.14L-0.098,2.14L-0.712,0.714L-1.324,2.14L-1.422,2.14L-2.171,0L-1.774,0L-1.326,1.375L-0.769,0L-0.671,0L-0.096,1.375L0.385,0L0.751,0L0,2.14Z" style="fill:white;fill-rule:nonzero;"/>
                </g>
                <g transform="matrix(106.064,0,0,100.682,2014.64,8928.81)">
                    <path d="M0,-1.548C-0.166,-1.548 -0.304,-1.494 -0.417,-1.388C-0.523,-1.285 -0.584,-1.159 -0.599,-1.008L0.562,-1.008C0.562,-1.158 0.515,-1.283 0.421,-1.384C0.318,-1.493 0.177,-1.548 0,-1.548M0.902,-0.738L-0.608,-0.738C-0.608,-0.492 -0.541,-0.305 -0.407,-0.173C-0.288,-0.058 -0.136,0 0.051,0C0.264,0 0.441,-0.063 0.583,-0.187L0.74,0.082C0.682,0.139 0.594,0.188 0.476,0.23C0.327,0.285 0.161,0.312 -0.021,0.312C-0.285,0.312 -0.508,0.223 -0.692,0.045C-0.897,-0.152 -1,-0.417 -1,-0.75C-1,-1.095 -0.895,-1.372 -0.685,-1.581C-0.497,-1.768 -0.274,-1.86 -0.018,-1.86C0.281,-1.86 0.515,-1.777 0.685,-1.609C0.849,-1.446 0.931,-1.233 0.931,-0.965C0.931,-0.883 0.921,-0.807 0.902,-0.738" style="fill:white;fill-rule:nonzero;"/>
                </g>
                <g transform="matrix(106.064,0,0,100.682,2372.82,8829.65)">
                    <path d="M0,-0.399L0,0.81C0,0.831 0.046,0.866 0.139,0.913C0.231,0.96 0.302,0.985 0.35,0.985C0.603,0.985 0.784,0.923 0.894,0.802C1.003,0.681 1.058,0.478 1.058,0.192C1.058,-0.045 0.994,-0.23 0.867,-0.364C0.739,-0.497 0.566,-0.563 0.35,-0.563C0.304,-0.563 0.241,-0.544 0.159,-0.504C0.078,-0.465 0.024,-0.43 0,-0.399M-0.055,1.108L-0.186,1.297L-0.372,1.297L-0.372,-1.696L0,-1.696L0,-0.682C0.035,-0.73 0.101,-0.775 0.198,-0.815C0.295,-0.856 0.391,-0.876 0.485,-0.876C0.772,-0.876 1.004,-0.777 1.182,-0.579C1.36,-0.38 1.449,-0.13 1.449,0.172C1.449,0.522 1.36,0.797 1.182,0.997C1.003,1.198 0.761,1.297 0.456,1.297C0.356,1.297 0.259,1.279 0.163,1.242C0.067,1.205 -0.005,1.16 -0.055,1.108" style="fill:white;fill-rule:nonzero;"/>
                </g>
                <g transform="matrix(106.064,0,0,100.682,3197.4,8991.35)">
                    <path d="M0,-2.009C-0.107,-2.115 -0.241,-2.169 -0.401,-2.169C-0.611,-2.169 -0.775,-2.098 -0.892,-1.956C-1.009,-1.814 -1.068,-1.625 -1.068,-1.391C-1.068,-1.148 -1.009,-0.959 -0.892,-0.824C-0.775,-0.69 -0.616,-0.621 -0.417,-0.621C-0.238,-0.621 -0.099,-0.667 0,-0.759L0,-2.009ZM0,0.473L0,-0.471C-0.108,-0.363 -0.29,-0.309 -0.544,-0.309C-0.83,-0.309 -1.053,-0.405 -1.216,-0.595C-1.378,-0.786 -1.459,-1.051 -1.459,-1.391C-1.459,-1.726 -1.366,-1.991 -1.181,-2.188C-0.995,-2.384 -0.756,-2.482 -0.464,-2.482C-0.281,-2.482 -0.111,-2.416 0.047,-2.284L0.146,-2.443L0.372,-2.443L0.372,0.473L0,0.473Z" style="fill:white;fill-rule:nonzero;"/>
                </g>
                <g transform="matrix(106.064,0,0,100.682,3507.62,8960.28)">
                    <path d="M0,-2.134L0,-0.798C0,-0.475 0.14,-0.313 0.42,-0.313C0.543,-0.313 0.655,-0.348 0.757,-0.419C0.859,-0.489 0.926,-0.571 0.958,-0.663L0.958,-2.134L1.33,-2.134L1.33,-0.039L0.958,-0.039L0.958,-0.328C0.917,-0.246 0.833,-0.171 0.707,-0.103C0.581,-0.034 0.458,0 0.338,0C0.109,0 -0.067,-0.066 -0.189,-0.197C-0.311,-0.329 -0.372,-0.517 -0.372,-0.759L-0.372,-2.134L0,-2.134Z" style="fill:white;fill-rule:nonzero;"/>
                </g>
                <g transform="matrix(106.064,0,0,100.682,3972.42,8928.81)">
                    <path d="M0,-1.548C-0.166,-1.548 -0.305,-1.494 -0.417,-1.388C-0.524,-1.285 -0.584,-1.159 -0.599,-1.008L0.561,-1.008C0.561,-1.158 0.514,-1.283 0.42,-1.384C0.317,-1.493 0.177,-1.548 0,-1.548M0.901,-0.738L-0.608,-0.738C-0.608,-0.492 -0.542,-0.305 -0.407,-0.173C-0.289,-0.058 -0.136,0 0.051,0C0.263,0 0.44,-0.063 0.583,-0.187L0.739,0.082C0.682,0.139 0.594,0.188 0.475,0.23C0.327,0.285 0.161,0.312 -0.021,0.312C-0.285,0.312 -0.509,0.223 -0.693,0.045C-0.897,-0.152 -1,-0.417 -1,-0.75C-1,-1.095 -0.895,-1.372 -0.685,-1.581C-0.497,-1.768 -0.275,-1.86 -0.018,-1.86C0.281,-1.86 0.515,-1.777 0.685,-1.609C0.849,-1.446 0.931,-1.233 0.931,-0.965C0.931,-0.883 0.921,-0.807 0.901,-0.738" style="fill:white;fill-rule:nonzero;"/>
                </g>
                <g transform="matrix(106.064,0,0,100.682,4717.72,8922.79)">
                    <path d="M0,-2.288C-0.075,-2.314 -0.146,-2.327 -0.211,-2.327C-0.325,-2.327 -0.418,-2.284 -0.492,-2.198C-0.565,-2.112 -0.602,-2.003 -0.602,-1.872C-0.602,-1.836 -0.599,-1.8 -0.592,-1.762L-0.166,-1.762L-0.166,-1.449L-0.592,-1.449L-0.592,0.333L-0.964,0.333L-0.964,-1.449L-1.27,-1.449L-1.27,-1.762L-0.964,-1.762C-0.964,-2.029 -0.898,-2.239 -0.767,-2.392C-0.635,-2.545 -0.461,-2.621 -0.244,-2.621C-0.136,-2.621 -0.02,-2.601 0.104,-2.562L0,-2.288Z" style="fill:white;fill-rule:nonzero;"/>
                </g>
                <g transform="matrix(106.064,0,0,100.682,4970.5,8960.28)">
                    <path d="M0,-2.134L0,-0.798C0,-0.475 0.14,-0.313 0.42,-0.313C0.543,-0.313 0.655,-0.348 0.757,-0.419C0.858,-0.489 0.926,-0.571 0.958,-0.663L0.958,-2.134L1.33,-2.134L1.33,-0.039L0.958,-0.039L0.958,-0.328C0.917,-0.246 0.833,-0.171 0.707,-0.103C0.581,-0.034 0.458,0 0.338,0C0.109,0 -0.067,-0.066 -0.189,-0.197C-0.311,-0.329 -0.372,-0.517 -0.372,-0.759L-0.372,-2.134L0,-2.134Z" style="fill:white;fill-rule:nonzero;"/>
                </g>
                <g transform="matrix(106.064,0,0,100.682,5480.52,8741.47)">
                    <path d="M0,2.134L0,0.915C0,0.693 -0.034,0.536 -0.101,0.447C-0.168,0.358 -0.28,0.313 -0.438,0.313C-0.523,0.313 -0.612,0.338 -0.704,0.389C-0.797,0.44 -0.868,0.502 -0.917,0.577L-0.917,2.134L-1.289,2.134L-1.289,0.039L-1.035,0.039L-0.917,0.309C-0.795,0.103 -0.595,0 -0.317,0C0.142,0 0.372,0.279 0.372,0.837L0.372,2.134L0,2.134Z" style="fill:white;fill-rule:nonzero;"/>
                </g>
                <g transform="matrix(106.064,0,0,100.682,5922.06,8939.23)">
                    <path d="M0,-1.755L-0.184,-1.493C-0.222,-1.53 -0.289,-1.567 -0.384,-1.601C-0.48,-1.634 -0.575,-1.651 -0.667,-1.651C-0.869,-1.651 -1.03,-1.58 -1.148,-1.44C-1.267,-1.298 -1.326,-1.104 -1.326,-0.858C-1.326,-0.611 -1.266,-0.425 -1.145,-0.297C-1.023,-0.168 -0.855,-0.104 -0.64,-0.104C-0.473,-0.104 -0.305,-0.168 -0.135,-0.298L0.012,0.016C-0.188,0.144 -0.435,0.209 -0.73,0.209C-1.015,0.209 -1.251,0.113 -1.438,-0.078C-1.625,-0.271 -1.718,-0.529 -1.718,-0.858C-1.718,-1.191 -1.621,-1.459 -1.427,-1.661C-1.233,-1.863 -0.968,-1.964 -0.632,-1.964C-0.524,-1.964 -0.406,-1.942 -0.28,-1.896C-0.153,-1.85 -0.06,-1.803 0,-1.755" style="fill:white;fill-rule:nonzero;"/>
                </g>
                <g transform="matrix(106.064,0,0,100.682,6183.91,8956.36)">
                    <path d="M0,-2.888C0.064,-2.888 0.119,-2.866 0.164,-2.82C0.208,-2.775 0.231,-2.721 0.231,-2.659C0.231,-2.595 0.208,-2.54 0.164,-2.495C0.119,-2.451 0.064,-2.428 0,-2.428C-0.062,-2.428 -0.116,-2.451 -0.161,-2.495C-0.206,-2.54 -0.229,-2.595 -0.229,-2.659C-0.229,-2.723 -0.207,-2.777 -0.162,-2.821C-0.118,-2.866 -0.063,-2.888 0,-2.888M-0.203,0L-0.203,-1.783L-0.491,-1.783L-0.491,-2.095L0.168,-2.095L0.168,0L-0.203,0Z" style="fill:white;fill-rule:nonzero;"/>
                </g>
                <g transform="matrix(106.064,0,0,100.682,6469.89,8851.45)">
                    <path d="M0,-0.011C0,0.515 0.186,0.778 0.557,0.778C0.731,0.778 0.867,0.707 0.965,0.566C1.063,0.426 1.113,0.233 1.113,-0.011C1.113,-0.53 0.928,-0.789 0.557,-0.789C0.388,-0.789 0.252,-0.72 0.151,-0.582C0.05,-0.444 0,-0.253 0,-0.011M-0.392,-0.011C-0.392,-0.334 -0.304,-0.595 -0.13,-0.794C0.044,-0.992 0.273,-1.092 0.557,-1.092C0.857,-1.092 1.09,-0.997 1.256,-0.806C1.421,-0.615 1.504,-0.35 1.504,-0.011C1.504,0.327 1.419,0.593 1.25,0.789C1.081,0.983 0.85,1.081 0.557,1.081C0.259,1.081 0.026,0.982 -0.141,0.786C-0.308,0.589 -0.392,0.323 -0.392,-0.011" style="fill:white;fill-rule:nonzero;"/>
                </g>
                <g transform="matrix(106.064,0,0,100.682,6986.12,8741.47)">
                    <path d="M0,2.134L0,0.915C0,0.693 -0.034,0.536 -0.101,0.447C-0.168,0.358 -0.28,0.313 -0.438,0.313C-0.523,0.313 -0.612,0.338 -0.704,0.389C-0.797,0.44 -0.868,0.502 -0.917,0.577L-0.917,2.134L-1.289,2.134L-1.289,0.039L-1.035,0.039L-0.917,0.309C-0.795,0.103 -0.595,0 -0.317,0C0.142,0 0.372,0.279 0.372,0.837L0.372,2.134L0,2.134Z" style="fill:white;fill-rule:nonzero;"/>
                </g>
                <g transform="matrix(106.064,0,0,100.682,7381.83,8849.07)">
                    <path d="M0,0.036C-0.118,0.011 -0.2,-0.003 -0.247,-0.003C-0.435,-0.003 -0.588,0.046 -0.707,0.142C-0.825,0.238 -0.884,0.352 -0.884,0.484C-0.884,0.702 -0.756,0.811 -0.499,0.811C-0.311,0.811 -0.145,0.722 0,0.543L0,0.036ZM0.035,0.825C-0.114,1.012 -0.341,1.104 -0.648,1.104C-0.812,1.104 -0.955,1.045 -1.075,0.926C-1.196,0.807 -1.256,0.658 -1.256,0.48C-1.256,0.267 -1.163,0.088 -0.978,-0.059C-0.792,-0.205 -0.555,-0.278 -0.266,-0.278C-0.188,-0.278 -0.099,-0.262 0,-0.228C0,-0.567 -0.151,-0.736 -0.454,-0.736C-0.686,-0.736 -0.865,-0.674 -0.99,-0.549L-1.146,-0.86C-1.076,-0.917 -0.979,-0.966 -0.854,-1.007C-0.729,-1.048 -0.61,-1.068 -0.497,-1.068C-0.193,-1.068 0.027,-1 0.165,-0.861C0.303,-0.723 0.372,-0.503 0.372,-0.202L0.372,0.549C0.372,0.732 0.426,0.855 0.536,0.917L0.536,1.102C0.385,1.102 0.271,1.081 0.196,1.038C0.122,0.995 0.067,0.924 0.035,0.825" style="fill:white;fill-rule:nonzero;"/>
                </g>
            </g>
        </g>
        <g transform="matrix(1.19097,0,0,1.25464,37.2304,-5751.53)">
            <g id="nome">
                <g transform="matrix(106.064,0,0,100.682,1798.01,7176.84)">
                    <path d="M0,12.693C-1.191,12.693 -2.389,12.419 -3.592,11.87L-3.592,9.931C-2.335,10.732 -1.14,11.132 -0.008,11.132C0.575,11.132 1.055,10.964 1.432,10.626C1.81,10.289 1.998,9.863 1.998,9.348C1.998,8.857 1.701,8.365 1.106,7.873C0.912,7.714 0.657,7.536 0.343,7.341C0.028,7.147 -0.357,6.935 -0.815,6.707C-1.261,6.478 -1.624,6.278 -1.904,6.106C-2.185,5.935 -2.387,5.803 -2.513,5.712C-3.336,5.083 -3.748,4.299 -3.748,3.362C-3.748,2.356 -3.37,1.544 -2.614,0.926C-1.858,0.309 -0.942,0 0.135,0C1.051,0 2.093,0.166 3.262,0.497L3.262,2.213C2.21,1.801 1.171,1.595 0.144,1.595C-0.131,1.595 -0.391,1.641 -0.636,1.733C-0.882,1.824 -1.093,1.947 -1.27,2.101C-1.447,2.255 -1.587,2.442 -1.69,2.659C-1.793,2.876 -1.844,3.11 -1.844,3.362C-1.844,3.9 -1.347,4.449 -0.352,5.008C1.306,5.946 2.227,6.489 2.41,6.638C3.405,7.416 3.902,8.319 3.902,9.348C3.902,10.354 3.524,11.167 2.768,11.784C2,12.389 1.077,12.693 0,12.693" style="fill:white;fill-rule:nonzero;"/>
                </g>
                <g transform="matrix(106.064,0,0,100.682,2848.65,8304.48)">
                    <path d="M0,-6.363C-0.904,-6.363 -1.607,-6.026 -2.11,-5.351C-2.453,-4.882 -2.625,-4.447 -2.625,-4.047L1.201,-4.047C1.601,-4.047 1.801,-4.237 1.801,-4.613C1.801,-4.99 1.612,-5.379 1.235,-5.78C0.857,-6.169 0.446,-6.363 0,-6.363M-2.625,-2.452C-2.625,-1.929 -2.418,-1.424 -2.007,-0.937C-1.493,-0.312 -0.824,0.001 0,0.001C0.96,0.001 2.018,-0.205 3.173,-0.616L3.173,1.093C2.006,1.428 0.949,1.595 0,1.595C-1.487,1.595 -2.636,1.133 -3.448,0.207C-4.214,-0.662 -4.597,-1.789 -4.597,-3.173C-4.597,-4.511 -4.231,-5.614 -3.5,-6.483C-2.688,-7.467 -1.527,-7.958 -0.017,-7.958C1.012,-7.958 1.887,-7.615 2.607,-6.929C3.339,-6.243 3.705,-5.414 3.705,-4.442C3.705,-3.824 3.476,-3.338 3.019,-2.984C2.561,-2.629 2.012,-2.452 1.372,-2.452L-2.625,-2.452Z" style="fill:white;fill-rule:nonzero;"/>
                </g>
                <g transform="matrix(106.064,0,0,100.682,4100.29,7171.61)">
                    <path d="M0,12.745C-1.944,12.745 -3.534,12.144 -4.769,10.944C-6.026,9.732 -6.655,8.211 -6.655,6.381C-6.655,4.563 -6.026,3.048 -4.769,1.836C-3.511,0.612 -1.921,0 0,0C1.041,0 2.127,0.178 3.259,0.532L3.259,2.213C2.172,1.802 1.086,1.596 0,1.596C-1.373,1.596 -2.51,2.058 -3.414,2.983C-4.305,3.896 -4.751,5.026 -4.751,6.373C-4.751,7.743 -4.305,8.878 -3.414,9.78C-2.499,10.693 -1.361,11.15 0,11.15C1.052,11.15 2.138,10.933 3.259,10.498L3.259,12.213C2.687,12.385 2.132,12.516 1.595,12.607C1.058,12.699 0.526,12.745 0,12.745" style="fill:white;fill-rule:nonzero;"/>
                </g>
                <g transform="matrix(106.064,0,0,100.682,4902.54,7102.54)">
                    <path d="M0,13.431C-0.697,13.431 -1.292,13.223 -1.784,12.807C-2.276,12.379 -2.521,11.832 -2.521,11.166L-2.521,0L-0.618,0L-0.618,10.995C-0.618,11.556 -0.326,11.836 0.257,11.836C0.829,11.836 1.315,11.716 1.715,11.476L1.715,13.067C1.212,13.309 0.64,13.431 0,13.431" style="fill:white;fill-rule:nonzero;"/>
                </g>
                <g transform="matrix(106.064,0,0,100.682,-2650.53,-583.218)">
                    <path d="M74.163,80.763L76.067,80.763L76.067,89.459L74.163,89.459L74.163,80.763ZM74.163,76.338L76.067,76.338L76.067,78.122L74.163,78.122L74.163,76.338Z" style="fill:white;fill-rule:nonzero;"/>
                </g>
                <g transform="matrix(106.064,0,0,100.682,6116.02,7503.26)">
                    <path d="M0,9.571C-1.487,9.571 -2.659,9.108 -3.517,8.181C-4.329,7.301 -4.735,6.175 -4.735,4.802C-4.735,3.419 -4.329,2.287 -3.517,1.406C-2.648,0.469 -1.476,0 0,0C0.605,0 1.446,0.132 2.521,0.394L2.521,2.058C1.537,1.749 0.697,1.595 0,1.595C-0.858,1.595 -1.544,1.897 -2.059,2.502C-2.574,3.106 -2.831,3.871 -2.831,4.794C-2.831,5.717 -2.574,6.476 -2.059,7.069C-1.544,7.674 -0.858,7.976 0,7.976C0.697,7.976 1.537,7.821 2.521,7.512L2.521,9.173C1.446,9.438 0.605,9.571 0,9.571" style="fill:white;fill-rule:nonzero;"/>
                </g>
                <g transform="matrix(106.064,0,0,100.682,7172.97,7102.58)">
                    <path d="M0,13.122L-3.688,8.628L-3.688,13.122L-5.592,13.122L-5.592,0L-3.688,0L-3.688,7.839L-2.096,5.874L0.725,5.499L-1.732,8.268L2.435,13.122L0,13.122Z" style="fill:white;fill-rule:nonzero;"/>
                </g>
            </g>
        </g>
        <g transform="matrix(1.19097,0,0,1.25464,37.2304,-5751.53)">
            <g id="flecha" transform="matrix(346.586,368.476,388.174,-328.999,7790.11,6915.43)">
                <path d="M0.067,-2.018L0.862,-0.803L1.7,-2.391L1.974,-2.374L2.192,-2.13L1.353,-0.542L2.801,-0.572L2.273,-0.1L1.106,-0.072L0.983,0.164L2.006,0.138L1.377,0.699L0.689,0.717L0.571,0.948L1.113,0.935L0.487,1.494L0.279,1.499L0.155,1.734L0.22,1.732L-0.518,2.391L0.067,-2.018Z" style="fill:url(#_Linear1);fill-rule:nonzero;"/>
            </g>
        </g>
    </g>
    <defs>
        <linearGradient id="_Linear1" x1="0" y1="0" x2="1" y2="0" gradientUnits="userSpaceOnUse" gradientTransform="matrix(1,0,0,-1,0,0.000158395)"><stop offset="0" style="stop-color:rgb(255,242,0);stop-opacity:1"/><stop offset="1" style="stop-color:rgb(255,203,3);stop-opacity:1"/></linearGradient>
    </defs>
</svg>
